# ProBuilder 4.1.0
# https://unity3d.com/unity/features/worldbuilding/probuilder
# 2019-12-16 4:14:35 PM

mtllib ./Back_of_Frame.mtl
o Back of Frame

g Back of Frame
v 0.6276964 0 -0.6276964
v 0.6276964 0 0
v 0 0 -0.6276964
v 0 0 0
v 0.6276964 0 0.6276964
v 0 0 0.6276964
v -0.6276964 0 -0.6276964
v -0.6276964 0 0
v -0.6276964 0 0.6276964

vt 1.636622 -0.6236209
vt 1.636622 0.5036063
vt 0.5093949 -0.6236209
vt 0.5093949 0.5036063
vt 1.636622 1.630834
vt 0.5093949 1.630834
vt -0.6178323 -0.6236209
vt -0.6178323 0.5036063
vt -0.6178323 1.630834

vn 0 -1 0

usemtl Wood
f 1/1/1 2/2/1 4/4/1 3/3/1
f 2/2/1 5/5/1 6/6/1 4/4/1
f 3/3/1 4/4/1 8/8/1 7/7/1
f 4/4/1 6/6/1 9/9/1 8/8/1

