# ProBuilder 4.0.5
# https://unity3d.com/unity/features/worldbuilding/probuilder
# 2019-10-23 12:59:46 PM

mtllib ./Wall_Segment.mtl
o Wall Segment

g Wall_Segment
v 0 3 0.07500002
v 0 0 0.07500002
v -0.15 0 0.07500002
v -0.15 3 0.07500002
v -0.15 3 -0.07499999
v -0.15 0 -0.07499999
v 0 0 -0.07499999
v 0 3 -0.07499999
v -0.15 0 1.78814E-08
v -0.15 3 1.78814E-08
v 0 3 1.78814E-08
v 0 0 1.78814E-08

vt -2.980232E-08 0
vt -1 2.980232E-08
vt -1 1
vt 0 1
vt 1 0
vt 1 1
vt 0.9948276 0.9966741
vt -0.005172312 0.9966739
vt -0.005172312 0.4966742
vt 0.9948277 0.4966742
vt -0.005172312 -0.003325701
vt 0.9948277 -0.003325582
vt 0.001846552 -0.003509074
vt 1.001847 -0.5035094
vt 1.001847 -0.003509074
vt 0.001846552 -0.5035094
vt 1.001847 -1.00351
vt 0.001846611 -1.00351
vt 1 0.5000001
vt 0 0.5000001
vt 0 -0.4999999
vt 1 -0.4999999
vt -1 -0.4999999
vt -1 0.5000001

vn 0 0 0.15
vn 0 0 -0.15
vn -0.15 0 0
vn 0.15 0 0
vn 0 3 0
vn 0 -3 0

g Wall_Segment
usemtl WoodBeam
f 4/4/1 3/3/1 2/2/1 1/1/1
f 8/6/2 7/4/2 6/1/2 5/5/2
f 10/10/3 9/9/3 3/8/3 4/7/3
f 5/12/3 6/11/3 9/9/3 10/10/3
f 12/16/4 7/13/4 8/15/4 11/14/4
f 2/18/4 12/16/4 11/14/4 1/17/4
f 10/5/5 4/19/5 1/20/5 11/1/5
f 5/22/5 10/5/5 11/1/5 8/21/5
f 12/1/6 9/2/6 6/23/6 7/21/6
f 2/20/6 3/24/6 9/2/6 12/1/6

