# ProBuilder 4.0.5
# https://unity3d.com/unity/features/worldbuilding/probuilder
# 2019-10-23 12:53:10 PM

mtllib ./Post.mtl
o Post

g Post (1)
v -0.125 0 0.125
v -0.125 3 0.125
v 0.125 3 0.125
v 0.125 0 0.125
v -0.125 3 -0.125
v 0.125 3 -0.125
v -0.125 0 -0.125
v 0.125 0 -0.125

vt -0.001838356 0.9981616
vt 0.9981616 0.9981616
vt 0.9981616 -0.001838386
vt -0.001838386 -0.001838356
vt 0.9742976 0.9713145
vt 0.9742976 -0.02868542
vt -0.02570242 -0.02868542
vt -0.02570242 0.9713145
vt -0.007906914 -0.002562881
vt -0.007906914 0.9974371
vt 0.9920931 0.9974371
vt 0.9920931 -0.002562881
vt -1 -1
vt 0 -1
vt -2.980232E-08 0
vt -1 -2.980232E-08

vn 0 0 0.25
vn 0 3 0
vn 0 0 -0.25
vn 0 -3 0
vn 0.25 0 0
vn -0.25 0 0

g Post (1)
usemtl WoodBeam
f 4/4/1 3/3/1 2/2/1 1/1/1
f 3/8/2 6/7/2 5/6/2 2/5/2
f 6/2/3 8/1/3 7/4/3 5/3/3
f 8/12/4 4/11/4 1/10/4 7/9/4
f 8/1/5 6/2/5 3/3/5 4/4/5
f 1/16/6 2/15/6 5/14/6 7/13/6

